<svg width="12" height="16" viewBox="0 0 12 16" fill="none" xmlns="http://www.w3.org/2000/svg">
<path d="M11.0618 11.8334V13.9998C11.0618 15.1042 10.6637 16 10.173 16H0.888787C0.397958 16 0 15.1044 0 13.9998V11.8334H11.0618Z" fill="black"/>
<path d="M0 9.49902V1.99882C0 0.894454 0.398053 -0.000952565 0.888787 -0.000952565H10.173C10.6637 -0.000952565 11.0618 0.894454 11.0618 1.99882V9.49902H0ZM5.18538 3.27667H1.38286C1.26009 3.27667 1.16064 3.50063 1.16064 3.77667C1.16064 4.05292 1.26009 4.27687 1.38286 4.27687H5.18538C5.30816 4.27687 5.4076 4.05292 5.4076 3.77667C5.4076 3.50084 5.30807 3.27667 5.18538 3.27667ZM5.18538 5.94353H1.38286C1.26009 5.94353 1.16064 6.16749 1.16064 6.44353C1.16064 6.71978 1.26009 6.94373 1.38286 6.94373H5.18538C5.30816 6.94373 5.4076 6.71978 5.4076 6.44353C5.4076 6.16749 5.30807 5.94353 5.18538 5.94353Z" fill="black"/>
</svg>
