<svg width="17" height="15" viewBox="0 0 17 15" fill="none" xmlns="http://www.w3.org/2000/svg">
<path d="M4.49802 6.04537H3.97902C3.27076 6.01977 2.5648 6.14 1.90495 6.39861C1.2451 6.65721 0.645434 7.04867 0.143173 7.54868L0 7.71572V12.6552H2.43394V9.85138L2.76205 9.48152L2.91118 9.30852C3.68785 8.51063 4.65478 7.92349 5.72095 7.60237C5.18715 7.1962 4.76616 6.6602 4.49802 6.04537Z" fill="black"/>
<path d="M16.0353 7.5311C15.5331 7.03109 14.9334 6.63963 14.2736 6.38103C13.6137 6.12243 12.9077 6.00219 12.1995 6.02779C11.9823 6.0284 11.7652 6.04035 11.5492 6.06358C11.2761 6.64039 10.8666 7.14202 10.3561 7.52514C11.4944 7.84003 12.5254 8.45868 13.3389 9.3148L13.488 9.48184L13.8102 9.8517V12.6615H16.1606V7.69814L16.0353 7.5311Z" fill="black"/>
<path d="M3.96112 4.88232H4.14606C4.06013 4.14452 4.18959 3.39763 4.5188 2.73179C4.84801 2.06596 5.36291 1.50964 6.00134 1.12999C5.76992 0.776444 5.45064 0.489059 5.07478 0.295978C4.69891 0.102897 4.27935 0.01074 3.85717 0.0285311C3.43498 0.0463223 3.02466 0.173452 2.66637 0.39747C2.30809 0.621489 2.01412 0.934717 1.81326 1.30648C1.6124 1.67825 1.51154 2.0958 1.52054 2.51826C1.52955 2.94072 1.64811 3.3536 1.86463 3.71647C2.08114 4.07934 2.38819 4.37976 2.75569 4.58831C3.1232 4.79686 3.53857 4.90639 3.96112 4.90618V4.88232Z" fill="black"/>
<path d="M11.9132 4.4349C11.9204 4.57201 11.9204 4.70941 11.9132 4.84652C12.0277 4.86467 12.1433 4.87464 12.2592 4.87635H12.3725C12.7932 4.85392 13.201 4.72294 13.556 4.49615C13.9111 4.26937 14.2013 3.95452 14.3986 3.58226C14.5958 3.20999 14.6933 2.79299 14.6816 2.37186C14.6698 1.95073 14.5492 1.53981 14.3315 1.17912C14.1138 0.818431 13.8065 0.520255 13.4393 0.313624C13.0722 0.106993 12.6578 -0.00105209 12.2365 7.72228e-06C11.8152 0.00106754 11.4014 0.111196 11.0353 0.319672C10.6692 0.528147 10.3633 0.827866 10.1474 1.18965C10.6873 1.54217 11.1313 2.02321 11.4395 2.58962C11.7477 3.15603 11.9105 3.79008 11.9132 4.4349Z" fill="black"/>
<path d="M7.99985 7.10761C9.47257 7.10761 10.6664 5.91373 10.6664 4.44101C10.6664 2.96829 9.47257 1.77441 7.99985 1.77441C6.52713 1.77441 5.33325 2.96829 5.33325 4.44101C5.33325 5.91373 6.52713 7.10761 7.99985 7.10761Z" fill="black"/>
<path d="M8.14299 8.52683C7.36391 8.49538 6.58653 8.62186 5.85761 8.89866C5.12869 9.17547 4.46331 9.59687 3.90149 10.1375L3.75235 10.3046V14.0807C3.75468 14.2038 3.78122 14.3251 3.83045 14.4378C3.87968 14.5506 3.95064 14.6525 4.03928 14.7378C4.12791 14.8231 4.23249 14.8902 4.34703 14.935C4.46157 14.9799 4.58384 15.0018 4.70684 14.9994H11.5612C11.6842 15.0018 11.8065 14.9799 11.921 14.935C12.0356 14.8902 12.1402 14.8231 12.2288 14.7378C12.3174 14.6525 12.3884 14.5506 12.4376 14.4378C12.4869 14.3251 12.5134 14.2038 12.5157 14.0807V10.3165L12.3726 10.1375C11.8144 9.59521 11.1513 9.17262 10.424 8.89565C9.69671 8.61868 8.92051 8.49318 8.14299 8.52683Z" fill="black"/>
</svg>
