<svg width="17" height="17" viewBox="0 0 17 17" fill="none" xmlns="http://www.w3.org/2000/svg">
<path d="M8.5 0C3.80528 0 0 3.80641 0 8.50045C0 13.1947 3.80528 17 8.5 17C13.1947 17 17 13.1947 17 8.50045C17 3.80641 13.1947 0 8.5 0ZM2.35665 9.62631H3.66044C3.87858 11.2688 4.57421 12.8112 5.661 14.0619C3.96077 13.1906 2.71093 11.5636 2.35665 9.62631ZM3.66044 7.37347H2.35665C2.71116 5.43637 3.961 3.80936 5.66123 2.93805C4.57441 4.18874 3.87871 5.73099 3.66044 7.37347ZM7.37347 12.5934C6.63879 11.7508 6.14451 10.726 5.94252 9.62653H7.37347V12.5934ZM7.37347 7.37347H5.94252C6.14461 6.27409 6.63888 5.24938 7.37347 4.40685V7.37347ZM14.6431 7.37347H13.3396C13.1214 5.73111 12.4259 4.18894 11.3392 2.93828C13.039 3.80981 14.2888 5.43683 14.6431 7.37347ZM9.62653 12.5929V9.62631H11.0575C10.8552 10.7256 10.361 11.7503 9.62653 12.5929ZM9.62653 7.37347V4.40663C10.3612 5.24918 10.8555 6.27399 11.0575 7.37347H9.62653ZM11.3385 14.0622C12.4255 12.8114 13.1213 11.269 13.3396 9.62631H14.6433C14.2891 11.5639 13.039 13.1909 11.3385 14.0622Z" fill="black"/>
</svg>
