<svg width="11" height="16" viewBox="0 0 11 16" fill="none" xmlns="http://www.w3.org/2000/svg">
<path d="M10.6665 1.33344H7.47916C7.16363 0.558613 6.32658 0 5.33326 0C4.33918 0 3.50288 0.558613 3.18737 1.33344H0V2.6666H3.18753C3.50291 3.44143 4.33918 4.00004 5.33326 4.00004C6.32658 4.00004 7.16365 3.44143 7.47916 2.6666H10.6667L10.6665 1.33344Z" fill="#191919"/>
<path d="M5.3331 4C2.3881 4 0 6.08988 0 8.66648V12.6665C0 13.403 0.681434 14 1.5236 14H2.28573V10.6665C2.28573 9.19563 3.65309 7.9999 5.33326 7.9999C7.01426 7.9999 8.3808 9.19563 8.3808 10.6665V14.0005H9.14293C9.9846 14.0005 10.6665 13.4037 10.6665 12.6674V8.66662C10.6665 6.08988 8.27827 4.00014 5.33343 4.00014L5.3331 4Z" fill="#191919"/>
<path d="M6.85773 10.6662C6.85773 9.92969 6.17471 9.33301 5.3338 9.33301C4.49212 9.33301 3.80988 9.92984 3.80988 10.6662V14.6662C3.80988 15.4027 4.4929 15.9997 5.3338 15.9997C6.17548 15.9997 6.85773 15.4027 6.85773 14.6662V10.6662Z" fill="#191919"/>
</svg>
