<svg width="165" height="85" viewBox="0 0 165 85" fill="none" xmlns="http://www.w3.org/2000/svg">
<path d="M12.7517 82.1119L10.1635 84.8264H0L1.87804 74.2683H14.0932L11.4892 77.0144H4.65565L4.4347 78.2769H12.7833L10.5107 80.6758H4.00859L3.75608 82.1119H12.7517Z" fill="#66070C"/>
<path d="M25.6243 82.1119L23.0203 84.8264H13.6932L15.5713 74.2683H18.8223L17.4335 82.1119H25.6243Z" fill="#66070C"/>
<path d="M39.2905 82.1119L36.7023 84.8264H26.5388L28.4168 74.2683H40.632L38.028 77.0144H31.1944L30.9735 78.2769H39.3221L37.0495 80.6758H30.5474L30.2949 82.1119H39.2905Z" fill="#66070C"/>
<path d="M54.1358 82.1119L51.5634 84.8264H46.2607C45.44 84.8264 44.6878 84.7107 44.0039 84.4792C43.3305 84.2372 42.7519 83.911 42.2679 83.5007C41.7944 83.0799 41.4262 82.5854 41.1631 82.0172C40.9001 81.4491 40.7686 80.8336 40.7686 80.1707C40.7686 79.308 40.9632 78.5136 41.3525 77.7877C41.7418 77.0617 42.2679 76.441 42.9307 75.9254C43.5936 75.3994 44.3721 74.9943 45.2664 74.7102C46.1607 74.4156 47.1129 74.2683 48.1229 74.2683H55.5246L52.9364 77.0144H47.6337C47.1497 77.0144 46.6868 77.088 46.2449 77.2353C45.8135 77.3826 45.4348 77.5878 45.1086 77.8508C44.7825 78.1138 44.5247 78.4242 44.3353 78.7819C44.1459 79.1291 44.0512 79.5132 44.0512 79.934C44.0512 80.2602 44.1144 80.56 44.2406 80.8336C44.3774 81.0966 44.5615 81.3228 44.793 81.5122C45.035 81.7016 45.319 81.8489 45.6452 81.9541C45.9714 82.0593 46.3343 82.1119 46.7341 82.1119H54.1358Z" fill="#66070C"/>
<path d="M70.1047 74.2683L67.4849 77.0144H63.7289L62.3401 84.8264H59.0732L60.4462 77.0144H55.4907L58.1105 74.2683H70.1047Z" fill="#66070C"/>
<path d="M83.4431 84.8264H79.0715L77.2093 82.033H72.1906L71.7014 84.8264H68.4346L69.3815 79.429H78.5665C78.8401 79.429 79.0978 79.3974 79.3398 79.3343C79.5923 79.2712 79.808 79.1817 79.9869 79.066C80.1763 78.9503 80.3236 78.8082 80.4288 78.6399C80.5445 78.461 80.6024 78.2664 80.6024 78.056C80.6024 77.7088 80.4603 77.451 80.1763 77.2827C79.8922 77.1038 79.4976 77.0144 78.9926 77.0144H69.8076L72.4274 74.2683H79.2136C79.7607 74.2683 80.3183 74.3157 80.8864 74.4104C81.4651 74.5051 81.9859 74.6787 82.4488 74.9312C82.9223 75.1732 83.3063 75.4993 83.6009 75.9096C83.8955 76.32 84.0428 76.8408 84.0428 77.472C84.0428 77.9455 83.9586 78.3979 83.7903 78.8293C83.6325 79.2607 83.401 79.6499 83.0959 79.9971C82.8013 80.3443 82.4436 80.6389 82.0227 80.8809C81.6019 81.1229 81.139 81.2913 80.6339 81.3859C80.7812 81.5227 80.9443 81.6963 81.1232 81.9067C81.3126 82.1172 81.5545 82.4065 81.8491 82.7747L83.4431 84.8264Z" fill="#66070C"/>
<path d="M88.2477 84.8264H84.9808L86.8589 74.2683H90.1099L88.2477 84.8264Z" fill="#66070C"/>
<path d="M104.501 82.1119L101.928 84.8264H96.6258C95.8051 84.8264 95.0528 84.7107 94.369 84.4792C93.6956 84.2372 93.1169 83.911 92.633 83.5007C92.1595 83.0799 91.7913 82.5854 91.5282 82.0172C91.2652 81.4491 91.1337 80.8336 91.1337 80.1707C91.1337 79.308 91.3283 78.5136 91.7176 77.7877C92.1069 77.0617 92.633 76.441 93.2958 75.9254C93.9586 75.3994 94.7372 74.9943 95.6315 74.7102C96.5258 74.4156 97.478 74.2683 98.488 74.2683H105.89L103.301 77.0144H97.9988C97.5148 77.0144 97.0519 77.088 96.61 77.2353C96.1786 77.3826 95.7998 77.5878 95.4737 77.8508C95.1475 78.1138 94.8898 78.4242 94.7004 78.7819C94.511 79.1291 94.4163 79.5132 94.4163 79.934C94.4163 80.2602 94.4794 80.56 94.6057 80.8336C94.7425 81.0966 94.9266 81.3228 95.1581 81.5122C95.4 81.7016 95.6841 81.8489 96.0103 81.9541C96.3364 82.0593 96.6994 82.1119 97.0992 82.1119H104.501Z" fill="#66070C"/>
<path d="M121.114 74.0947C123.408 74.0947 125.122 74.4577 126.259 75.1837C127.406 75.8991 127.979 77.0249 127.979 78.561C127.979 80.7284 127.253 82.3434 125.801 83.406C124.349 84.4687 122.145 85 119.189 85C116.895 85 115.175 84.637 114.028 83.911C112.892 83.1851 112.323 82.054 112.323 80.5179C112.323 78.3506 113.049 76.7408 114.501 75.6887C115.953 74.626 118.157 74.0947 121.114 74.0947ZM119.662 82.2539C120.725 82.2539 121.582 82.2066 122.234 82.1119C122.897 82.0172 123.408 81.8436 123.765 81.5911C124.133 81.3386 124.381 80.9967 124.507 80.5653C124.633 80.1234 124.696 79.5658 124.696 78.8924C124.696 78.4716 124.617 78.1296 124.46 77.8666C124.312 77.593 124.07 77.3826 123.734 77.2353C123.408 77.0775 122.987 76.9723 122.471 76.9197C121.956 76.8671 121.34 76.8408 120.625 76.8408C119.562 76.8408 118.705 76.8881 118.052 76.9828C117.4 77.0775 116.89 77.2511 116.521 77.5036C116.164 77.7561 115.922 78.1033 115.795 78.5452C115.669 78.9766 115.606 79.5289 115.606 80.2023C115.606 80.6337 115.685 80.9809 115.843 81.2439C116.001 81.5069 116.243 81.7174 116.569 81.8752C116.895 82.0225 117.31 82.1224 117.815 82.175C118.331 82.2276 118.947 82.2539 119.662 82.2539Z" fill="#66070C"/>
<path d="M139.571 85C139.35 85 139.145 84.9632 138.956 84.8895C138.777 84.8264 138.577 84.6738 138.356 84.4318L132.911 78.6241L131.822 84.8264H128.855L130.386 76.0675C130.449 75.7203 130.549 75.4204 130.686 75.1679C130.823 74.9154 130.986 74.7102 131.175 74.5524C131.375 74.3946 131.591 74.2788 131.822 74.2052C132.054 74.1316 132.29 74.0947 132.532 74.0947C132.732 74.0947 132.932 74.1316 133.132 74.2052C133.332 74.2683 133.537 74.4209 133.748 74.6629L139.192 80.4706L140.297 74.2683H143.264L141.702 83.0115C141.639 83.3587 141.533 83.6585 141.386 83.911C141.249 84.1636 141.086 84.374 140.897 84.5423C140.707 84.7001 140.497 84.8159 140.266 84.8895C140.034 84.9632 139.803 85 139.571 85Z" fill="#66070C"/>
<path d="M156.396 82.1119L153.807 84.8264H143.644L145.522 74.2683H157.737L155.133 77.0144H148.3L148.079 78.2769H156.427L154.155 80.6758H147.652L147.4 82.1119H156.396Z" fill="#66070C"/>
<path fill-rule="evenodd" clip-rule="evenodd" d="M132.658 68.5524L87.2853 0L26.6238 68.5524H39.9397L79.8875 22.6864L82.8466 26.1387L45.3647 68.5524H58.6807L88.2717 34.5228L91.2308 37.9751L64.5989 68.5524H77.9148L97.149 46.3592L111.451 68.5524H132.658Z" fill="url(#paint0_linear_4535_7799)"/>
<path fill-rule="evenodd" clip-rule="evenodd" d="M161.263 80.3879C162.897 80.3879 164.222 79.0631 164.222 77.4288C164.222 75.7946 162.897 74.4697 161.263 74.4697C159.629 74.4697 158.304 75.7946 158.304 77.4288C158.304 79.0631 159.629 80.3879 161.263 80.3879ZM161.263 80.8811C163.169 80.8811 164.715 79.3355 164.715 77.4288C164.715 75.5222 163.169 73.9766 161.263 73.9766C159.356 73.9766 157.811 75.5222 157.811 77.4288C157.811 79.3355 159.356 80.8811 161.263 80.8811Z" fill="#66070C"/>
<path d="M159.887 78.6127H159.395V76.6991H158.764V76.2891H160.518V76.6991H159.887V78.6127Z" fill="#66070C"/>
<path d="M161.925 78.6127L161.365 76.7897H161.351C161.371 77.1606 161.381 77.408 161.381 77.5319V78.6127H160.941V76.2891H161.612L162.162 78.066H162.171L162.754 76.2891H163.425V78.6127H162.966V77.5129C162.966 77.461 162.966 77.4011 162.967 77.3333C162.97 77.2655 162.977 77.0853 162.99 76.7929H162.975L162.376 78.6127H161.925Z" fill="#66070C"/>
<defs>
<linearGradient id="paint0_linear_4535_7799" x1="86.2989" y1="20.7137" x2="85.8057" y2="59.6752" gradientUnits="userSpaceOnUse">
<stop stop-color="#810002"/>
<stop offset="0.4875" stop-color="#F1000A"/>
<stop offset="1" stop-color="#7D0007"/>
</linearGradient>
</defs>
</svg>
