<svg width="29" height="28" viewBox="0 0 29 28" fill="none" xmlns="http://www.w3.org/2000/svg">
<path fill-rule="evenodd" clip-rule="evenodd" d="M1.45 17C2.25081 17 2.9 17.6156 2.9 18.375V23.875C2.9 24.2397 3.05277 24.5894 3.3247 24.8473C3.59662 25.1051 3.96544 25.25 4.35 25.25H24.65C25.0346 25.25 25.4034 25.1051 25.6753 24.8473C25.9472 24.5894 26.1 24.2397 26.1 23.875V18.375C26.1 17.6156 26.7492 17 27.55 17C28.3508 17 29 17.6156 29 18.375V23.875C29 24.969 28.5417 26.0182 27.7259 26.7918C26.9101 27.5654 25.8037 28 24.65 28H4.35C3.19631 28 2.08987 27.5654 1.27409 26.7918C0.458302 26.0182 0 24.969 0 23.875V18.375C0 17.6156 0.649187 17 1.45 17Z" fill="#383838"/>
<path fill-rule="evenodd" clip-rule="evenodd" d="M13.4983 0.418419C14.0515 -0.139473 14.9485 -0.139473 15.5017 0.418419L22.5851 7.56128C23.1383 8.11917 23.1383 9.02369 22.5851 9.58158C22.0318 10.1395 21.1348 10.1395 20.5816 9.58158L14.5 3.44888L8.4184 9.58158C7.86516 10.1395 6.96817 10.1395 6.41493 9.58158C5.86169 9.02369 5.86169 8.11917 6.41493 7.56128L13.4983 0.418419Z" fill="#383838"/>
<path fill-rule="evenodd" clip-rule="evenodd" d="M14.5 0C15.3284 0 16 0.639593 16 1.42857V18.5714C16 19.3604 15.3284 20 14.5 20C13.6716 20 13 19.3604 13 18.5714V1.42857C13 0.639593 13.6716 0 14.5 0Z" fill="#383838"/>
</svg>
